<svg width="274" height="271" viewBox="0 0 274 271" fill="none" xmlns="http://www.w3.org/2000/svg">
<ellipse cx="137" cy="135.5" rx="137" ry="135.5" fill="white"/>
<path d="M203.575 182.98C210.169 187.549 211.836 196.713 206.263 202.483C195.673 213.449 182.543 221.813 167.917 226.797C148.649 233.363 127.774 233.724 108.286 227.827C88.7978 221.931 71.6959 210.08 59.4317 193.973C47.1674 177.867 40.3704 158.331 40.0147 138.167C39.659 118.002 45.763 98.2438 57.4518 81.7234C69.1406 65.2031 85.8141 52.7689 105.083 46.203C124.351 39.637 145.226 39.2765 164.714 45.1729C179.508 49.6491 192.927 57.5567 203.899 68.1526C209.668 73.7244 208.322 82.9392 201.892 87.734C195.553 92.4613 186.67 91.0513 180.659 85.9127C173.588 79.8673 165.285 75.3049 156.25 72.571C142.608 68.4435 127.996 68.6959 114.508 73.2921C101.02 77.8882 89.3484 86.5922 81.1663 98.1564C72.9841 109.721 68.7113 123.552 68.9603 137.667C69.2093 151.782 73.9672 165.457 82.5522 176.731C91.1372 188.006 103.108 196.301 116.75 200.429C130.392 204.556 145.004 204.304 158.492 199.708C167.422 196.665 175.555 191.822 182.407 185.54C188.239 180.194 197.072 178.473 203.575 182.98Z" fill="#FF725E"/>
<path d="M123 30.5C123 23.5964 128.596 18 135.5 18C142.404 18 148 23.5964 148 30.5V148C134.193 148 123 136.807 123 123V30.5Z" fill="#FF725E"/>
<rect x="75" y="141" width="10" height="25" rx="5" transform="rotate(-90 75 141)" fill="#FF725E"/>
<rect x="174" y="117.196" width="6" height="12" rx="3" transform="rotate(-120 174 117.196)" fill="#FF725E"/>
<rect x="162.196" y="102.392" width="6" height="12" rx="3" transform="rotate(-150 162.196 102.392)" fill="#FF725E"/>
<rect x="156.598" y="171.402" width="6" height="12" rx="3" transform="rotate(-30 156.598 171.402)" fill="#FF725E"/>
<rect x="171.402" y="159.598" width="6" height="12" rx="3" transform="rotate(-60 171.402 159.598)" fill="#FF725E"/>
<rect x="118.196" y="100.392" width="6" height="12" rx="3" transform="rotate(150 118.196 100.392)" fill="#FF725E"/>
<rect x="103.392" y="112.196" width="6" height="12" rx="3" transform="rotate(120 103.392 112.196)" fill="#FF725E"/>
<rect x="100.794" y="154.598" width="6" height="12" rx="3" transform="rotate(60 100.794 154.598)" fill="#FF725E"/>
<rect x="112.598" y="169.402" width="6" height="12" rx="3" transform="rotate(30 112.598 169.402)" fill="#FF725E"/>
<rect x="142" y="198" width="10" height="25" rx="5" transform="rotate(-180 142 198)" fill="#FF725E"/>
<rect x="141" y="100" width="10" height="25" rx="5" transform="rotate(-180 141 100)" fill="white"/>
<path d="M148 148C134.193 148 123 136.807 123 123H208C221.807 123 233 134.193 233 148H148Z" fill="#FF725E"/>
<rect x="178" y="141" width="10" height="25" rx="5" transform="rotate(-90 178 141)" fill="white"/>
</svg>
