<svg width="274" height="274" viewBox="0 0 274 274" fill="none" xmlns="http://www.w3.org/2000/svg">
<rect width="274" height="274" rx="25" fill="#FF725E"/>
<path d="M204.575 183.98C211.169 188.549 212.836 197.713 207.263 203.483C196.673 214.449 183.543 222.813 168.917 227.797C149.649 234.363 128.774 234.724 109.286 228.827C89.7978 222.931 72.6959 211.08 60.4317 194.973C48.1674 178.867 41.3704 159.331 41.0147 139.167C40.659 119.002 46.763 99.2438 58.4518 82.7234C70.1406 66.2031 86.8141 53.7689 106.083 47.203C125.351 40.637 146.226 40.2765 165.714 46.1729C180.508 50.6491 193.927 58.5567 204.899 69.1526C210.668 74.7244 209.322 83.9392 202.892 88.734C196.553 93.4613 187.67 92.0513 181.659 86.9127C174.588 80.8673 166.285 76.3049 157.25 73.571C143.608 69.4435 128.996 69.6959 115.508 74.2921C102.02 78.8882 90.3484 87.5922 82.1663 99.1564C73.9841 110.721 69.7113 124.552 69.9603 138.667C70.2093 152.782 74.9672 166.457 83.5522 177.731C92.1372 189.006 104.108 197.301 117.75 201.429C131.392 205.556 146.004 205.304 159.492 200.708C168.422 197.665 176.555 192.822 183.407 186.54C189.239 181.194 198.072 179.473 204.575 183.98Z" fill="white"/>
<path d="M124 31.5C124 24.5964 129.596 19 136.5 19C143.404 19 149 24.5964 149 31.5V149C135.193 149 124 137.807 124 124V31.5Z" fill="white"/>
<rect x="76" y="142" width="10" height="25" rx="5" transform="rotate(-90 76 142)" fill="white"/>
<rect x="175" y="118.196" width="6" height="12" rx="3" transform="rotate(-120 175 118.196)" fill="white"/>
<rect x="163.196" y="103.392" width="6" height="12" rx="3" transform="rotate(-150 163.196 103.392)" fill="white"/>
<rect x="157.598" y="172.402" width="6" height="12" rx="3" transform="rotate(-30 157.598 172.402)" fill="white"/>
<rect x="172.402" y="160.598" width="6" height="12" rx="3" transform="rotate(-60 172.402 160.598)" fill="white"/>
<rect x="119.196" y="101.392" width="6" height="12" rx="3" transform="rotate(150 119.196 101.392)" fill="white"/>
<rect x="104.392" y="113.196" width="6" height="12" rx="3" transform="rotate(120 104.392 113.196)" fill="white"/>
<rect x="101.794" y="155.598" width="6" height="12" rx="3" transform="rotate(60 101.794 155.598)" fill="white"/>
<rect x="113.598" y="170.402" width="6" height="12" rx="3" transform="rotate(30 113.598 170.402)" fill="white"/>
<rect x="143" y="199" width="10" height="25" rx="5" transform="rotate(-180 143 199)" fill="white"/>
<rect x="142" y="101" width="10" height="25" rx="5" transform="rotate(-180 142 101)" fill="#FF725E"/>
<path d="M149 149C135.193 149 124 137.807 124 124H209C222.807 124 234 135.193 234 149H149Z" fill="white"/>
<rect x="179" y="142" width="10" height="25" rx="5" transform="rotate(-90 179 142)" fill="#FF725E"/>
</svg>
